<svg width="120" height="121" fill="none" xmlns="http://www.w3.org/2000/svg"><g clip-path="url(#clip0)"><path d="M73.502 79.078a6.877 6.877 0 00-9.726 0L53.03 89.824 33.578 70.372l-19.823 3.444v-11.4a6.877 6.877 0 00-13.755 0v27.68a29.91 29.91 0 008.76 21.149c11.681 11.681 30.619 11.681 42.3 0l11.696-11.697 10.746-10.745a6.877 6.877 0 000-9.726z" fill="url(#paint0_linear)"/><path d="M22.109 113.227c-.238 0-.48-.036-.719-.111a24.718 24.718 0 01-3.45-1.379 2.39 2.39 0 112.103-4.293c.896.438 1.832.813 2.783 1.112a2.39 2.39 0 01-.717 4.671zm8.264 2.072c-.45 0-.9-.014-1.35-.043a2.39 2.39 0 01.308-4.771 16.853 16.853 0 005.095-.463 2.391 2.391 0 011.136 4.644c-1.721.421-3.46.633-5.188.633z" fill="#FFDCCE"/><path d="M53.03 80.098a6.877 6.877 0 00-9.726 0l-8.351-1.374-.51 10.236a6.877 6.877 0 009.726 9.725l8.862-8.861a6.877 6.877 0 000-9.726z" fill="url(#paint1_linear)"/><path d="M33.578 60.646a6.878 6.878 0 00-9.726 0l-8.861 8.861a6.877 6.877 0 009.726 9.726l10.235-.51-1.374-8.351a6.877 6.877 0 000-9.726z" fill="url(#paint2_linear)"/><path d="M43.304 70.372a6.877 6.877 0 00-9.726 0l-8.861 8.861a6.877 6.877 0 009.726 9.726l8.861-8.861a6.877 6.877 0 000-9.726z" fill="url(#paint3_linear)"/><path d="M111.24 8.767A29.91 29.91 0 0090.09.007H62.41a6.877 6.877 0 000 13.754h11.4l-3.445 19.824 19.452 19.452-10.745 10.746a6.878 6.878 0 009.726 9.726l10.745-10.746 11.697-11.697c11.68-11.68 11.68-30.618 0-42.299z" fill="url(#paint4_linear)"/><path d="M101.327 12.54c-.401 0-.808-.102-1.182-.315a20.284 20.284 0 00-4.447-1.878 2.39 2.39 0 111.319-4.595 25.074 25.074 0 015.497 2.32 2.39 2.39 0 01-1.187 4.468zM88.902 9.569h-2.955a2.39 2.39 0 110-4.781h2.955a2.39 2.39 0 110 4.78z" fill="#DA9D81"/><path d="M79.226 14.998a6.877 6.877 0 00-9.726 0l-8.861 8.861a6.877 6.877 0 109.726 9.726l8.352 1.374.51-10.235a6.877 6.877 0 000-9.726z" fill="url(#paint5_linear)"/><path d="M98.678 34.45a6.877 6.877 0 00-9.725 0l-10.236.51 1.374 8.351a6.877 6.877 0 009.726 9.726l8.862-8.861a6.878 6.878 0 000-9.726z" fill="url(#paint6_linear)"/><path d="M88.953 24.724a6.878 6.878 0 00-9.727 0l-8.861 8.861a6.877 6.877 0 009.726 9.726l8.862-8.861a6.877 6.877 0 000-9.726z" fill="url(#paint7_linear)"/></g><defs><linearGradient id="paint0_linear" x1="62.663" y1="108.05" x2="-4.894" y2="69.046" gradientUnits="userSpaceOnUse"><stop stop-color="#FBBA99"/><stop offset="1" stop-color="#FBCFB9"/></linearGradient><linearGradient id="paint1_linear" x1="32.428" y1="89.392" x2="55.045" y2="89.392" gradientUnits="userSpaceOnUse"><stop stop-color="#FBBA99"/><stop offset="1" stop-color="#FBCFB9"/></linearGradient><linearGradient id="paint2_linear" x1="12.977" y1="69.939" x2="35.593" y2="69.939" gradientUnits="userSpaceOnUse"><stop stop-color="#FBBA99"/><stop offset="1" stop-color="#FBCFB9"/></linearGradient><linearGradient id="paint3_linear" x1="22.703" y1="79.665" x2="45.319" y2="79.665" gradientUnits="userSpaceOnUse"><stop stop-color="#FBBA99"/><stop offset="1" stop-color="#FBCFB9"/></linearGradient><linearGradient id="paint4_linear" x1="120" y1="37.765" x2="55.532" y2="37.765" gradientUnits="userSpaceOnUse"><stop offset=".001" stop-color="#C7856A"/><stop offset="1" stop-color="#DA9D81"/></linearGradient><linearGradient id="paint5_linear" x1="69.933" y1="35.6" x2="69.933" y2="12.983" gradientUnits="userSpaceOnUse"><stop offset=".001" stop-color="#C7856A"/><stop offset="1" stop-color="#DA9D81"/></linearGradient><linearGradient id="paint6_linear" x1="89.385" y1="55.052" x2="89.385" y2="32.435" gradientUnits="userSpaceOnUse"><stop offset=".001" stop-color="#C7856A"/><stop offset="1" stop-color="#DA9D81"/></linearGradient><linearGradient id="paint7_linear" x1="79.659" y1="45.326" x2="79.659" y2="22.709" gradientUnits="userSpaceOnUse"><stop offset=".001" stop-color="#C7856A"/><stop offset="1" stop-color="#DA9D81"/></linearGradient><clipPath id="clip0"><path fill="#fff" transform="translate(0 .007)" d="M0 0h120v120H0z"/></clipPath></defs></svg>