<svg width="120" height="121" fill="none" xmlns="http://www.w3.org/2000/svg"><path d="M21.19 32.332a4.771 4.771 0 100-9.543 4.771 4.771 0 000 9.543zm77.62 0a4.771 4.771 0 10.001-9.543 4.771 4.771 0 000 9.543z" fill="#FD9BAE"/><path d="M28.843 87.1l3.338 18.325a14.89 14.89 0 0014.65 12.222H73.17a14.89 14.89 0 0014.65-12.222L91.157 87.1H28.843z" fill="url(#paint0_linear)"/><path d="M114.948 49.74a9.42 9.42 0 00-11.369 2.011c-7.92 8.755-19.476 11.342-19.615 11.372l.049-.01 3.77 18.475c.85-.173 17.631-3.749 29.797-17.202 4.121-4.557 2.806-11.787-2.632-14.646z" fill="url(#paint1_linear)"/><path d="M5.053 49.74a9.42 9.42 0 0111.369 2.011c7.919 8.755 19.476 11.342 19.614 11.372l-.048-.01-3.77 18.475c-.85-.173-17.632-3.749-29.798-17.202C-1.7 59.829-.386 52.599 5.053 49.74z" fill="url(#paint2_linear)"/><path d="M45.402 8.834c-30.966 0-32.75 42.176-12.936 73.971h16.86L45.403 8.834z" fill="url(#paint3_linear)"/><path d="M74.598 8.834c30.966 0 32.751 42.176 12.936 73.971h-16.86l3.924-73.971z" fill="url(#paint4_linear)"/><path d="M70.674 82.805S102.77 4.007 60 4.007c-42.77 0-10.673 78.798-10.673 78.798h21.347z" fill="url(#paint5_linear)"/><path d="M74.508 26.929a2.391 2.391 0 01-2.364-2.058c-.192-1.37-.467-2.97-1.044-4.455a2.39 2.39 0 014.456-1.733c.759 1.953 1.105 3.977 1.323 5.523a2.39 2.39 0 01-2.37 2.723zm-6.001-11.191a2.38 2.38 0 01-1.42-.469 8.507 8.507 0 00-1.813-1.02 2.39 2.39 0 111.823-4.419 13.29 13.29 0 012.833 1.595 2.39 2.39 0 01-1.423 4.313z" fill="#AFEFE5"/><path d="M35.044 60.866c2.342 0 4.241-1.526 4.241-3.409 0-1.882-1.899-3.408-4.241-3.408-2.343 0-4.241 1.526-4.241 3.408 0 1.883 1.898 3.409 4.24 3.409zm49.912 0c2.343 0 4.242-1.526 4.242-3.409 0-1.882-1.9-3.408-4.242-3.408s-4.241 1.526-4.241 3.408c0 1.883 1.899 3.409 4.241 3.409z" fill="#FD9BAE"/><path d="M42.315 50.173c2.04 0 3.922.451 5.44 1.213 1.29.648 2.83-.227 2.944-1.667.032-.404.035-.816.008-1.234-.281-4.301-3.862-7.735-8.17-7.846a8.41 8.41 0 00-8.602 9.119c.12 1.422 1.663 2.27 2.939 1.63 1.518-.764 3.4-1.215 5.441-1.215z" fill="#fff"/><path d="M60 60.35a8.28 8.28 0 01-5.189-1.836 3.287 3.287 0 114.11-5.13 1.715 1.715 0 002.158 0 3.287 3.287 0 014.11 5.13A8.282 8.282 0 0160 60.35zM42.315 50.173c1.683 0 3.258.307 4.61.843a5.012 5.012 0 10-9.221 0c1.353-.536 2.928-.843 4.611-.843z" fill="#383842"/><path d="M77.685 50.173c2.04 0 3.922.451 5.44 1.213 1.29.648 2.83-.227 2.944-1.667.032-.404.035-.816.008-1.234-.281-4.301-3.862-7.735-8.17-7.846a8.41 8.41 0 00-8.602 9.119c.12 1.422 1.663 2.27 2.939 1.63 1.518-.764 3.4-1.215 5.441-1.215z" fill="#fff"/><path d="M77.685 50.173c1.683 0 3.258.307 4.61.843a5.012 5.012 0 10-9.221 0c1.353-.536 2.928-.843 4.61-.843z" fill="#383842"/><path d="M37.962 36.81a4.771 4.771 0 100-9.542 4.771 4.771 0 000 9.542zm44.076 0a4.771 4.771 0 100-9.542 4.771 4.771 0 000 9.542z" fill="#FD9BAE"/><path d="M53.648 90.207L39.794 82.51 28.843 87.1l2.09 11.47c.594.065 1.197.099 1.808.099h18.714a4.515 4.515 0 002.193-8.462z" fill="#F7AC3E"/><path d="M87.26 72.058H32.74c-5.368 0-9.72 4.351-9.72 9.72 0 5.368 4.352 9.72 9.72 9.72h54.52c5.368 0 9.72-4.352 9.72-9.72 0-5.369-4.352-9.72-9.72-9.72z" fill="url(#paint6_linear)"/><defs><linearGradient id="paint0_linear" x1="60" y1="117.647" x2="60" y2="87.1" gradientUnits="userSpaceOnUse"><stop offset=".001" stop-color="#F7AC3E"/><stop offset=".978" stop-color="#FCCB88"/></linearGradient><linearGradient id="paint1_linear" x1="83.964" y1="65.122" x2="120" y2="65.122" gradientUnits="userSpaceOnUse"><stop stop-color="#00C4A2"/><stop offset=".979" stop-color="#76E6D5"/></linearGradient><linearGradient id="paint2_linear" x1="0" y1="65.122" x2="36.036" y2="65.122" gradientUnits="userSpaceOnUse"><stop offset=".021" stop-color="#76E6D5"/><stop offset="1" stop-color="#00C4A2"/></linearGradient><linearGradient id="paint3_linear" x1="49.327" y1="45.819" x2="19.488" y2="45.819" gradientUnits="userSpaceOnUse"><stop offset=".021" stop-color="#76E6D5"/><stop offset="1" stop-color="#00C4A2"/></linearGradient><linearGradient id="paint4_linear" x1="100.512" y1="45.819" x2="70.674" y2="45.819" gradientUnits="userSpaceOnUse"><stop offset=".021" stop-color="#76E6D5"/><stop offset="1" stop-color="#00C4A2"/></linearGradient><linearGradient id="paint5_linear" x1="82.234" y1="43.406" x2="37.766" y2="43.406" gradientUnits="userSpaceOnUse"><stop offset=".021" stop-color="#76E6D5"/><stop offset="1" stop-color="#00C4A2"/></linearGradient><linearGradient id="paint6_linear" x1="60" y1="91.498" x2="60" y2="72.058" gradientUnits="userSpaceOnUse"><stop offset=".001" stop-color="#F6E66A"/><stop offset=".978" stop-color="#F9F2AB"/></linearGradient></defs></svg>