<svg width="120" height="121" fill="none" xmlns="http://www.w3.org/2000/svg"><g clip-path="url(#clip0)"><path d="M60 13.41c-30.99-30.289-81.872 20.445-6.899 64.105a13.696 13.696 0 0013.798 0C141.873 33.856 90.99-16.879 60 13.41z" fill="url(#paint0_linear)"/><path d="M89.124 115.782c17.052 0 30.876-13.823 30.876-30.876S106.176 54.03 89.124 54.03c-17.053 0-30.877 13.823-30.877 30.876s13.824 30.876 30.877 30.876z" fill="url(#paint1_linear)"/><path d="M106.178 70.814a2.382 2.382 0 01-1.718-.73 19.674 19.674 0 00-2.393-2.104 2.39 2.39 0 012.851-3.838 24.363 24.363 0 012.979 2.62 2.391 2.391 0 01-1.719 4.052zm-8.947-6.092c-.288 0-.58-.052-.865-.163a21.355 21.355 0 00-4.964-1.266 2.39 2.39 0 01.62-4.74c2.089.273 4.133.794 6.076 1.55a2.39 2.39 0 01-.867 4.619z" fill="#FFC8E5"/><path d="M45.459 49.765a37.824 37.824 0 00-14.583-2.907c-3.704 0-7.285.535-10.673 1.527 2.973 4.797 7.14 9.754 12.711 14.742l12.105-3.787a5.1 5.1 0 00.44-9.575z" fill="#F5385D"/><path d="M30.876 115.782c17.053 0 30.877-13.823 30.877-30.876S47.929 54.03 30.876 54.03C13.824 54.03 0 67.853 0 84.906s13.824 30.876 30.876 30.876z" fill="url(#paint2_linear)"/><path d="M10.16 93.302c1.945 0 3.521-1.267 3.521-2.83 0-1.562-1.576-2.829-3.52-2.829-1.945 0-3.521 1.267-3.521 2.83 0 1.562 1.576 2.83 3.52 2.83zm41.432 0c1.945 0 3.52-1.267 3.52-2.83 0-1.562-1.575-2.829-3.52-2.829-1.944 0-3.52 1.267-3.52 2.83 0 1.562 1.576 2.83 3.52 2.83z" fill="#FDAECE"/><path d="M16.197 90.473a6.981 6.981 0 100-13.963 6.981 6.981 0 000 13.963z" fill="#fff"/><path d="M23.05 84.474a4.16 4.16 0 10-8.097-1.914 4.16 4.16 0 008.096 1.914z" fill="#383842"/><path d="M45.556 90.473a6.981 6.981 0 100-13.963 6.981 6.981 0 000 13.963z" fill="#fff"/><path d="M51.29 86.43a4.16 4.16 0 10-5.884-5.884 4.16 4.16 0 005.884 5.883zm-20.414 6.444c1.725 0 3.124-1.832 3.124-4.09 0-2.26-1.399-4.09-3.124-4.09s-3.123 1.83-3.123 4.09c0 2.258 1.398 4.09 3.123 4.09z" fill="#383842"/><path d="M68.408 93.302c1.944 0 3.52-1.267 3.52-2.83 0-1.562-1.576-2.829-3.52-2.829-1.945 0-3.52 1.267-3.52 2.83 0 1.562 1.575 2.83 3.52 2.83zm41.431 0c1.945 0 3.521-1.267 3.521-2.83 0-1.562-1.576-2.829-3.521-2.829-1.944 0-3.52 1.267-3.52 2.83 0 1.562 1.576 2.83 3.52 2.83z" fill="#FF748F"/><path d="M74.444 90.473a6.981 6.981 0 100-13.963 6.981 6.981 0 000 13.963z" fill="#fff"/><path d="M74.548 86.432a4.16 4.16 0 10-5.883-5.884 4.16 4.16 0 005.883 5.884z" fill="#383842"/><path d="M103.803 90.473a6.982 6.982 0 100-13.964 6.982 6.982 0 000 13.964z" fill="#fff"/><path d="M105.035 84.494a4.16 4.16 0 10-8.097-1.914 4.16 4.16 0 008.097 1.914zm-14.123.693h-3.578c-.709 0-1.333.466-1.533 1.146-.63 2.142-1.354 6.54 3.323 6.54 4.676 0 3.952-4.398 3.322-6.54a1.598 1.598 0 00-1.534-1.146z" fill="#383842"/><path d="M37.495 41.008c2.112 0 3.825-1.376 3.825-3.074s-1.713-3.074-3.825-3.074c-2.113 0-3.825 1.376-3.825 3.074s1.712 3.074 3.825 3.074zm45.011 0c2.112 0 3.825-1.376 3.825-3.074s-1.713-3.074-3.825-3.074c-2.113 0-3.825 1.376-3.825 3.074s1.712 3.074 3.825 3.074z" fill="#FDAECE"/><path d="M44.052 31.365c1.84 0 3.537.407 4.906 1.095 1.163.584 2.55-.206 2.654-1.504.03-.364.032-.736.008-1.113-.254-3.879-3.484-6.976-7.369-7.075a7.585 7.585 0 00-7.757 8.223c.108 1.283 1.5 2.047 2.65 1.47 1.37-.688 3.068-1.096 4.908-1.096z" fill="#fff"/><path d="M60 40.542a7.468 7.468 0 01-4.68-1.655 2.964 2.964 0 113.707-4.627 1.547 1.547 0 001.946 0 2.964 2.964 0 113.706 4.627A7.467 7.467 0 0160 40.542zm-15.948-9.177c1.517 0 2.938.277 4.158.76a4.52 4.52 0 10-8.316 0c1.22-.483 2.64-.76 4.158-.76z" fill="#383842"/><path d="M75.948 31.365c1.84 0 3.538.407 4.907 1.095 1.163.584 2.55-.206 2.654-1.504.029-.364.032-.736.007-1.113-.253-3.879-3.483-6.976-7.368-7.075a7.585 7.585 0 00-7.757 8.223c.108 1.283 1.5 2.047 2.65 1.47 1.37-.688 3.068-1.096 4.907-1.096z" fill="#fff"/><path d="M75.948 31.365c1.518 0 2.939.277 4.159.76a4.52 4.52 0 10-8.316 0c1.22-.483 2.64-.76 4.157-.76z" fill="#383842"/></g><defs><linearGradient id="paint0_linear" x1="60" y1="4.231" x2="60" y2="79.381" gradientUnits="userSpaceOnUse"><stop stop-color="#FF889E"/><stop offset=".979" stop-color="#F5385D"/></linearGradient><linearGradient id="paint1_linear" x1="58.247" y1="84.906" x2="120" y2="84.906" gradientUnits="userSpaceOnUse"><stop offset=".021" stop-color="#FFB3DD"/><stop offset="1" stop-color="#FF88CA"/></linearGradient><linearGradient id="paint2_linear" x1="61.753" y1="84.906" x2="0" y2="84.906" gradientUnits="userSpaceOnUse"><stop offset=".021" stop-color="#BA99DB"/><stop offset="1" stop-color="#8959C3"/></linearGradient><clipPath id="clip0"><path fill="#fff" transform="translate(0 .007)" d="M0 0h120v120H0z"/></clipPath></defs></svg>