<svg width="120" height="121" fill="none" xmlns="http://www.w3.org/2000/svg"><g clip-path="url(#clip0)"><path d="M20.822.533a1.997 1.997 0 00-1.997 1.998v9.484l8.933 2.99V7.467A6.935 6.935 0 0020.822.533z" fill="url(#paint0_linear)"/><path d="M113.442 54.93v21.225l-63.906 7.492L0 76.155v-33.03c0-10.406 8.436-18.841 18.843-18.841L52.03 17.56l30.762 6.723c16.928 0 30.649 13.721 30.649 30.647z" fill="url(#paint1_linear)"/><path d="M18.825 12.015l8.932 2.99V7.467c0-.922-.181-1.802-.508-2.607h-8.424v7.154z" fill="#F0E02C"/><path d="M95.26 10.838H8.802a3.71 3.71 0 00-3.711 3.71c0 5.377 4.359 9.736 9.736 9.736h74.406c5.377 0 9.736-4.359 9.736-9.736a3.71 3.71 0 00-3.71-3.71z" fill="url(#paint2_linear)"/><path d="M33.23 71.42a6.526 6.526 0 006.526-6.526v-21.77a8.24 8.24 0 00-8.24-8.24H16.75a8.24 8.24 0 00-8.24 8.24v21.77a6.526 6.526 0 006.525 6.525H33.23z" fill="url(#paint3_linear)"/><path d="M82.794 34.884H64.26a8.24 8.24 0 00-8.24 8.24v21.77a6.526 6.526 0 006.525 6.525h3.844v-2.048l9.38-.707 4.482 2.755H94.81a8.033 8.033 0 008.033-8.032V54.93c-.001-11.072-8.976-20.047-20.048-20.047z" fill="url(#paint4_linear)"/><path d="M72.94 16.001H44.737c-6.561 0-11.88 5.32-11.88 11.881 0 10.117 8.2 18.318 18.317 18.318h1.087v4.963h14.024l18.89-4.963V28.238C85.176 21.48 79.697 16 72.939 16z" fill="url(#paint5_linear)"/><path d="M76.504 26.08a2.381 2.381 0 01-1.475-.51 3.35 3.35 0 00-2.09-.724h-.149a2.39 2.39 0 110-4.78h.15c1.82 0 3.611.619 5.043 1.744a2.39 2.39 0 01-1.479 4.27zm-11.773-1.234h-6.367a2.39 2.39 0 110-4.781h6.367a2.39 2.39 0 110 4.78z" fill="#F5CCC2"/><path d="M42.754 53.292a7.092 7.092 0 100-14.184 7.092 7.092 0 000 14.184z" fill="url(#paint6_linear)"/><path d="M113.442 76.155v27.066H6.499A6.502 6.502 0 010 96.721V76.156h113.442z" fill="url(#paint7_linear)"/><path d="M54.205 58.032H80.25V71.42H54.205V58.032z" fill="url(#paint8_linear)"/><path d="M73.826 30.391c-14.872 1.555-16.663 5.43-25.612 6.583a5.86 5.86 0 00-4.965 4.574 22.021 22.021 0 00-.493 4.979c.175 12.005 10.127 21.707 22.134 21.59C76.894 68 86.59 58.232 86.59 46.2c0-3.864-1-7.494-2.755-10.645-1.987-3.57-5.945-5.589-10.01-5.164z" fill="url(#paint9_linear)"/><path d="M116.058 88.69h-4.29a3.942 3.942 0 00-3.942 3.942v10.588h8.232A3.941 3.941 0 00120 99.279v-6.647a3.942 3.942 0 00-3.942-3.941z" fill="url(#paint10_linear)"/><path d="M4.98 79.959H0v15.996h4.98a5.203 5.203 0 005.203-5.203v-5.59a5.203 5.203 0 00-5.203-5.203z" fill="url(#paint11_linear)"/><path d="M49.536 53.523c1.441 0 2.61-.939 2.61-2.097s-1.169-2.097-2.61-2.097c-1.441 0-2.61.94-2.61 2.097 0 1.158 1.169 2.097 2.61 2.097zm30.707 0c1.44 0 2.61-.939 2.61-2.097s-1.17-2.097-2.61-2.097c-1.441 0-2.61.94-2.61 2.097 0 1.158 1.169 2.097 2.61 2.097z" fill="#FD9BAE"/><path d="M64.89 53.206a5.093 5.093 0 01-3.193-1.13 2.022 2.022 0 112.529-3.156c.39.313.936.313 1.327 0a2.022 2.022 0 012.529 3.156 5.093 5.093 0 01-3.192 1.13z" fill="#383842"/><path d="M59.172 45.906c-.173-2.646-2.376-4.758-5.026-4.826a5.174 5.174 0 00-5.292 5.61c.074.875 1.023 1.396 1.808 1.002.164-.083.337-.157.514-.227l-.003-.002 3.032-2.147 2.641 2.147-.003.002c.177.07.35.144.514.226.794.399 1.74-.14 1.81-1.025.02-.249.022-.502.005-.76zm21.76 0c-.173-2.646-2.376-4.758-5.027-4.826a5.174 5.174 0 00-5.291 5.61c.073.875 1.023 1.396 1.807 1.002.164-.083.338-.157.515-.227l-.003-.002 2.543-2.147 3.13 2.147-.003.002c.176.07.35.144.513.226.794.399 1.74-.14 1.81-1.025a5.28 5.28 0 00.006-.76z" fill="#fff"/><path d="M54.01 46.945a7.75 7.75 0 012.836.518 3.084 3.084 0 10-5.673 0 7.744 7.744 0 012.837-.518zm21.76 0c1.034 0 2.004.19 2.836.518a3.084 3.084 0 10-5.673 0 7.748 7.748 0 012.836-.518z" fill="#383842"/><path d="M87.082 119.48c8.092 0 14.651-6.559 14.651-14.651 0-8.091-6.56-14.65-14.65-14.65-8.092 0-14.652 6.559-14.652 14.65 0 8.092 6.56 14.651 14.651 14.651z" fill="url(#paint12_linear)"/><path d="M87.082 111.339a6.51 6.51 0 100-13.019 6.51 6.51 0 000 13.019z" fill="url(#paint13_linear)"/><path d="M32.857 119.48c8.092 0 14.651-6.559 14.651-14.651 0-8.091-6.56-14.65-14.65-14.65-8.092 0-14.652 6.559-14.652 14.65 0 8.092 6.56 14.651 14.651 14.651z" fill="url(#paint14_linear)"/><path d="M32.857 111.339a6.51 6.51 0 100-13.019 6.51 6.51 0 000 13.019z" fill="url(#paint15_linear)"/><path d="M76.063 81.477a5.112 5.112 0 00-2.64-1.404l-20.381-1.56a4.365 4.365 0 00-3.42 1.265 4.37 4.37 0 00.412 6.54 25.071 25.071 0 0015.423 5.305h.002c2.15 0 4.3-.28 6.392-.83a13.476 13.476 0 003.157-1.274c2.932-1.642 3.431-5.666 1.055-8.042z" fill="#FF88CA"/><path d="M75.242 75.918a7.067 7.067 0 00-8.634-5.035 4.54 4.54 0 01-5.539-3.23 7.067 7.067 0 10-13.668 3.6c2.621 9.954 12.852 15.92 22.806 13.298a7.067 7.067 0 005.035-8.633z" fill="url(#paint16_linear)"/></g><defs><linearGradient id="paint0_linear" x1="23.291" y1=".533" x2="23.291" y2="15.004" gradientUnits="userSpaceOnUse"><stop offset=".022" stop-color="#F9F2AB"/><stop offset=".999" stop-color="#F6E66A"/></linearGradient><linearGradient id="paint1_linear" x1="56.721" y1="-2.641" x2="56.721" y2="63.445" gradientUnits="userSpaceOnUse"><stop stop-color="#D0D7D7"/><stop offset="1" stop-color="#EFEFEF"/></linearGradient><linearGradient id="paint2_linear" x1="52.031" y1="10.838" x2="52.031" y2="24.284" gradientUnits="userSpaceOnUse"><stop offset=".022" stop-color="#F9F2AB"/><stop offset=".999" stop-color="#F6E66A"/></linearGradient><linearGradient id="paint3_linear" x1="24.133" y1="71.419" x2="24.133" y2="34.884" gradientUnits="userSpaceOnUse"><stop stop-color="#4F4C5F"/><stop offset=".978" stop-color="#6A647F"/></linearGradient><linearGradient id="paint4_linear" x1="79.43" y1="71.419" x2="79.43" y2="34.884" gradientUnits="userSpaceOnUse"><stop stop-color="#4F4C5F"/><stop offset=".978" stop-color="#6A647F"/></linearGradient><linearGradient id="paint5_linear" x1="32.857" y1="33.582" x2="85.176" y2="33.582" gradientUnits="userSpaceOnUse"><stop stop-color="#D86743"/><stop offset=".979" stop-color="#E99780"/></linearGradient><linearGradient id="paint6_linear" x1="35.662" y1="46.2" x2="49.846" y2="46.2" gradientUnits="userSpaceOnUse"><stop stop-color="#FBBA99"/><stop offset="1" stop-color="#FBCFB9"/></linearGradient><linearGradient id="paint7_linear" x1="0" y1="89.688" x2="113.442" y2="89.688" gradientUnits="userSpaceOnUse"><stop offset=".021" stop-color="#FFB3DD"/><stop offset="1" stop-color="#FF88CA"/></linearGradient><linearGradient id="paint8_linear" x1="54.205" y1="64.726" x2="80.251" y2="64.726" gradientUnits="userSpaceOnUse"><stop offset=".021" stop-color="#FFB3DD"/><stop offset="1" stop-color="#FF88CA"/></linearGradient><linearGradient id="paint9_linear" x1="42.754" y1="49.226" x2="86.59" y2="49.226" gradientUnits="userSpaceOnUse"><stop stop-color="#FBBA99"/><stop offset="1" stop-color="#FBCFB9"/></linearGradient><linearGradient id="paint10_linear" x1="113.913" y1="88.691" x2="113.913" y2="103.22" gradientUnits="userSpaceOnUse"><stop offset=".022" stop-color="#C3C1C7"/><stop offset="1" stop-color="#8F8A9F"/></linearGradient><linearGradient id="paint11_linear" x1="0" y1="87.957" x2="10.184" y2="87.957" gradientUnits="userSpaceOnUse"><stop offset=".022" stop-color="#F9F2AB"/><stop offset=".999" stop-color="#F6E66A"/></linearGradient><linearGradient id="paint12_linear" x1="72.431" y1="104.829" x2="101.733" y2="104.829" gradientUnits="userSpaceOnUse"><stop stop-color="#4F4C5F"/><stop offset=".978" stop-color="#6A647F"/></linearGradient><linearGradient id="paint13_linear" x1="87.082" y1="98.32" x2="87.082" y2="111.339" gradientUnits="userSpaceOnUse"><stop offset=".022" stop-color="#C3C1C7"/><stop offset="1" stop-color="#8F8A9F"/></linearGradient><linearGradient id="paint14_linear" x1="18.206" y1="104.829" x2="47.508" y2="104.829" gradientUnits="userSpaceOnUse"><stop stop-color="#4F4C5F"/><stop offset=".978" stop-color="#6A647F"/></linearGradient><linearGradient id="paint15_linear" x1="32.857" y1="98.32" x2="32.857" y2="111.339" gradientUnits="userSpaceOnUse"><stop offset=".022" stop-color="#C3C1C7"/><stop offset="1" stop-color="#8F8A9F"/></linearGradient><linearGradient id="paint16_linear" x1="61.322" y1="85.169" x2="61.322" y2="62.384" gradientUnits="userSpaceOnUse"><stop stop-color="#FBBA99"/><stop offset="1" stop-color="#FBCFB9"/></linearGradient><clipPath id="clip0"><path fill="#fff" transform="translate(0 .007)" d="M0 0h120v120H0z"/></clipPath></defs></svg>