<svg width="121" height="120" fill="none" xmlns="http://www.w3.org/2000/svg"><path d="M64.533 43.6H51.706V21.532c0-5.956-5.763-10.784-12.871-10.784-7.109 0-12.872 4.828-12.872 10.784v22.07H13.136V21.53C13.136 9.64 24.642 0 38.834 0c14.193 0 25.699 9.64 25.699 21.531v22.07z" fill="url(#paint0_linear)"/><path d="M17.975 22.87V43.6h7.988V22.87c0-1.848-1.788-3.346-3.994-3.346-2.206 0-3.994 1.498-3.994 3.346z" fill="#A86455"/><path d="M108.033 43.6H95.205V23.598c0-7.097-6.866-12.85-15.336-12.85S64.533 16.5 64.533 23.597V43.6H51.706V23.597C51.706 10.564 64.316 0 79.869 0c15.555 0 28.164 10.565 28.164 23.597V43.6z" fill="url(#paint1_linear)"/><path d="M119.779 110.763l-3.392-4.584c-2.238-3.026-3.424-6.515-3.424-10.075V37.597c0-2.702-3.288-4.532-6.261-3.483l-7.81 2.755a7.524 7.524 0 01-4.95 0l-11.597-4.09a7.524 7.524 0 00-4.95 0l-11.597 4.09a7.524 7.524 0 01-4.95 0L49.09 32.722a7.536 7.536 0 00-4.671-.092l-14.442 4.437a7.543 7.543 0 01-4.393 0L14.85 33.769c-2.944-.905-6.064.921-6.064 3.548v58.786c0 3.56-1.186 7.05-3.425 10.076l-3.39 4.584c-2.982 4.03.477 9.237 6.137 9.237h105.535c5.659 0 9.118-5.207 6.137-9.237z" fill="url(#paint2_linear)"/><path d="M119.779 110.763l-3.391-4.584c-2.239-3.026-3.425-6.515-3.425-10.075v-39.08c-14.393-1.486-16.496-6.435-33.093-6.435-19.527 0-18.987 6.851-42.01 6.851H8.786v38.664c0 3.56-1.186 7.049-3.425 10.075l-3.391 4.584c-2.982 4.03.478 9.237 6.137 9.237h105.535c5.659 0 9.118-5.207 6.137-9.237z" fill="url(#paint3_linear)"/><path d="M8.785 37.317c0-2.627 3.12-4.453 6.064-3.548l10.735 3.298a7.548 7.548 0 004.393 0l14.442-4.437a7.507 7.507 0 012.357-.325v63.799c0 3.56 1.186 7.049 3.425 10.075l3.39 4.584c2.982 4.03-.477 9.237-6.136 9.237H8.106c-5.66 0-9.119-5.207-6.137-9.237l3.391-4.584c2.239-3.026 3.425-6.515 3.425-10.075V37.317z" fill="url(#paint4_linear)"/><path d="M50.2 106.179c-2.238-3.026-3.424-6.515-3.424-10.075v-39.08c-6.07 0-11.744-3.629-18.995-3.629-7.252 0-12.927 3.629-18.996 3.629v39.08c0 3.56-1.186 7.049-3.425 10.075l-3.39 4.584c-2.983 4.03.477 9.237 6.136 9.237h39.349c5.659 0 9.118-5.207 6.137-9.237l-3.391-4.584z" fill="url(#paint5_linear)"/><path d="M54.795 82.54c2.354 0 4.261-1.284 4.261-2.869 0-1.585-1.907-2.87-4.26-2.87-2.354 0-4.262 1.285-4.262 2.87 0 1.585 1.908 2.87 4.261 2.87zm50.149 0c2.353 0 4.261-1.284 4.261-2.869 0-1.585-1.908-2.87-4.261-2.87s-4.261 1.285-4.261 2.87c0 1.585 1.908 2.87 4.261 2.87z" fill="#EAADCD"/><path d="M62.1 79.67c4.668 0 8.451-3.17 8.451-7.08s-3.783-7.08-8.45-7.08-8.45 3.17-8.45 7.08 3.783 7.08 8.45 7.08z" fill="#fff"/><path d="M70.412 73.595c.64-2.267-1.035-4.54-3.742-5.076-2.706-.536-5.419.868-6.058 3.135-.64 2.268 1.035 4.54 3.742 5.076 2.706.536 5.419-.867 6.058-3.135z" fill="#3B3B44"/><path d="M97.638 79.67c4.667 0 8.45-3.17 8.45-7.08s-3.783-7.08-8.45-7.08-8.45 3.17-8.45 7.08 3.783 7.08 8.45 7.08z" fill="#fff"/><path d="M104.574 75.576c1.966-1.647 1.966-4.318 0-5.966-1.967-1.648-5.155-1.648-7.122 0-1.966 1.648-1.966 4.319 0 5.966 1.967 1.648 5.155 1.648 7.122 0zm-24.704 6.53c2.087 0 3.78-1.857 3.78-4.148 0-2.29-1.693-4.148-3.78-4.148-2.089 0-3.782 1.857-3.782 4.148 0 2.29 1.693 4.148 3.781 4.148z" fill="#3B3B44"/><path d="M27.78 100.208c-1.811 0-3.28-1.23-3.28-2.749V74.975c0-1.519 1.469-2.75 3.28-2.75 1.813 0 3.282 1.231 3.282 2.75v22.484c0 1.519-1.47 2.749-3.281 2.749z" fill="#E06E1C"/><defs><linearGradient id="paint0_linear" x1="64.533" y1="21.8" x2="13.588" y2="21.8" gradientUnits="userSpaceOnUse"><stop stop-color="#AC6C58"/><stop offset="1" stop-color="#DA9B8C"/></linearGradient><linearGradient id="paint1_linear" x1="79.869" y1="43.728" x2="79.869" y2="-8.894" gradientUnits="userSpaceOnUse"><stop stop-color="#AC6C58"/><stop offset="1" stop-color="#DA9B8C"/></linearGradient><linearGradient id="paint2_linear" x1="60.874" y1="23.641" x2="60.874" y2="53.07" gradientUnits="userSpaceOnUse"><stop stop-color="#F4D952"/><stop offset="1" stop-color="#F9EDAF"/></linearGradient><linearGradient id="paint3_linear" x1="60.874" y1="123.778" x2="60.874" y2="45.138" gradientUnits="userSpaceOnUse"><stop stop-color="#EFC27B"/><stop offset="1" stop-color="#F3D5A6"/></linearGradient><linearGradient id="paint4_linear" x1="27.78" y1="67.335" x2="27.78" y2="25.387" gradientUnits="userSpaceOnUse"><stop stop-color="#F4C22C"/><stop offset="1" stop-color="#F9E198"/></linearGradient><linearGradient id="paint5_linear" x1="27.78" y1="143.703" x2="27.78" y2="60.761" gradientUnits="userSpaceOnUse"><stop stop-color="#EA7D32"/><stop offset="1" stop-color="#F0B160"/></linearGradient></defs></svg>