<svg width="16" height="30" fill="none" xmlns="http://www.w3.org/2000/svg"><path d="M1.244 15.94h3.158v12.998c0 .257.208.465.465.465h5.353a.465.465 0 00.465-.465V16h3.63a.465.465 0 00.461-.411l.551-4.786a.465.465 0 00-.461-.517h-4.181v-3c0-.904.487-1.363 1.447-1.363h2.734a.465.465 0 00.464-.465V1.066A.465.465 0 0014.866.6h-3.768a3.694 3.694 0 00-.172-.003c-.654 0-2.926.128-4.72 1.78-1.99 1.829-1.713 4.02-1.647 4.4v3.507H1.244a.465.465 0 00-.464.465v4.724c0 .257.208.465.464.465z" fill="#528DDE"/><path d="M10.22 30H4.866a1.063 1.063 0 01-1.062-1.062V16.537h-2.56a1.063 1.063 0 01-1.062-1.063V10.75c0-.586.477-1.062 1.062-1.062h2.717V6.826c-.09-.579-.293-2.926 1.84-4.889C7.753.14 10.216 0 10.925 0c.087 0 .15.002.186.003h3.754c.585 0 1.062.477 1.062 1.063v4.392c0 .586-.477 1.062-1.062 1.062h-2.734c-.714 0-.85.27-.85.766v2.402h3.584a1.063 1.063 0 011.055 1.184l-.552 4.785a1.06 1.06 0 01-1.055.94h-3.032v12.34c0 .586-.476 1.063-1.062 1.063zM5 28.805h5.087V16c0-.33.268-.597.598-.597h3.51l.521-4.52h-4.031a.598.598 0 01-.598-.597v-3c0-1.228.764-1.96 2.045-1.96h2.6V1.198h-3.634l-.03-.001c-.008 0-.058-.003-.142-.003-.6 0-2.68.117-4.316 1.622-1.75 1.61-1.525 3.496-1.462 3.858a.6.6 0 01.009.103v3.507c0 .33-.268.598-.598.598H1.377v4.458h3.025c.33 0 .597.268.597.598v12.866z" fill="#3B6197"/><path d="M6.202 21.634a.598.598 0 01-.597-.598v-.299a.598.598 0 011.195 0v.3c0 .33-.268.597-.598.597zm0 6.454a.598.598 0 01-.597-.598v-4.542a.598.598 0 111.195 0v4.542c0 .33-.268.598-.598.598z" fill="#3B6197"/></svg>