<svg width="31" height="27" fill="none" xmlns="http://www.w3.org/2000/svg"><path d="M.567 22.405V4.777A3.904 3.904 0 014.471.873h22.193a3.904 3.904 0 013.903 3.904v17.628a3.904 3.904 0 01-3.903 3.904H4.47a3.904 3.904 0 01-3.904-3.904z" fill="url(#paint0_linear)"/><path d="M26.084 23.654H5.05a1.829 1.829 0 01-1.829-1.829V5.357c0-1.01.82-1.829 1.829-1.829h21.032c1.01 0 1.83.82 1.83 1.829v16.468a1.83 1.83 0 01-1.83 1.829z" fill="url(#paint1_linear)"/><path d="M26.084 23.654c1.01 0 1.828-.819 1.828-1.829v-10.7c-3.168.225-5.152.97-5.152 3.118 0 2.761.076 3.534-4.342 3.534-3.727 0-4.814 3.34-5.064 5.877h12.73z" fill="url(#paint2_linear)"/><path d="M14.81 18.083a.924.924 0 00-1.341.078c-.15.18-.293.372-.428.575-1.416 2.122-1.511 4.728-1.549 4.918h1.862c.14-1.429.547-3.111 1.54-4.31a.924.924 0 00-.084-1.261z" fill="#17C5D9"/><path d="M8.798 11.57c-1.298 0-2.638 1.526-2.638 2.875 0 1.348.108 3.724 2.104 3.724 1.995 0 3.834-.812 3.834-2.597s-.054-4.003-3.3-4.003z" fill="url(#paint3_linear)"/><path d="M9.951 18.87a.926.926 0 00-1-.735 6.957 6.957 0 01-.687.034c-1.426 0-1.889-1.214-2.036-2.398a.928.928 0 00-1.066-.807.928.928 0 00-.772 1.033c.06.481.16.976.332 1.447.594 1.638 1.885 2.577 3.542 2.577.264 0 .562-.011.88-.043a.924.924 0 00.807-1.106v-.001z" fill="#17C5D9"/><path d="M10.32 11.092c.492 0 .891-.32.891-.716 0-.396-.399-.717-.892-.717-.492 0-.892.32-.892.716 0 .396.4.717.892.717zm10.495 0c.493 0 .892-.32.892-.716 0-.396-.4-.717-.892-.717s-.892.32-.892.716c0 .396.4.717.892.717z" fill="#EAADCD"/><path d="M21.026 8.891a1.766 1.766 0 10-3.487-.565 1.766 1.766 0 003.486.565z" fill="#fff"/><path d="M18.236 8.695a1.054 1.054 0 002.1 0h-2.1z" fill="#3B3B44"/><path d="M19.286 6.843a1.766 1.766 0 00-1.764 1.853h3.529l.002-.087c0-.975-.791-1.766-1.767-1.766z" fill="#0099CF"/><path d="M13.589 8.89a1.766 1.766 0 10-3.487-.565 1.766 1.766 0 003.487.566z" fill="#fff"/><path d="M10.798 8.695a1.054 1.054 0 002.1 0h-2.1z" fill="#3B3B44"/><path d="M11.849 6.843a1.766 1.766 0 00-1.764 1.853h3.528l.002-.087c0-.975-.79-1.766-1.766-1.766z" fill="#0099CF"/><path d="M16.247 10.581a.447.447 0 01-.305-.12.528.528 0 00-.75 0 .448.448 0 01-.609-.657 1.42 1.42 0 011.968 0 .448.448 0 01-.304.777z" fill="#3B3B44"/><path d="M29.363 20.419a8.429 8.429 0 00-1.951-.9 8.429 8.429 0 00-.9-1.952 1.03 1.03 0 00-1.752 0 8.425 8.425 0 00-.9 1.952 8.4 8.4 0 00-1.951.9 1.03 1.03 0 000 1.751 8.424 8.424 0 001.951.9c.233.76.576 1.43.9 1.952a1.03 1.03 0 001.752 0 8.429 8.429 0 00.9-1.952 8.429 8.429 0 001.951-.9 1.03 1.03 0 000-1.751z" fill="url(#paint4_linear)"/><path d="M26.18 8.683a.598.598 0 01-.599-.598V6.048a.19.19 0 00-.189-.19h-.503a.598.598 0 010-1.194h.503c.764 0 1.385.62 1.385 1.384v2.037c0 .33-.268.598-.598.598zm-4.118-2.824h-.892a.598.598 0 010-1.195h.892a.598.598 0 010 1.195z" fill="#DFF7FA"/><defs><linearGradient id="paint0_linear" x1="2.888" y1="13.591" x2="32.395" y2="13.591" gradientUnits="userSpaceOnUse"><stop stop-color="#4E5660"/><stop offset="1" stop-color="#64768D"/></linearGradient><linearGradient id="paint1_linear" x1="15.567" y1="23.435" x2="15.567" y2="2.856" gradientUnits="userSpaceOnUse"><stop stop-color="#74D2E8"/><stop offset="1" stop-color="#BAEAF5"/></linearGradient><linearGradient id="paint2_linear" x1="20.633" y1="23.518" x2="20.633" y2="10.707" gradientUnits="userSpaceOnUse"><stop stop-color="#AC6C58"/><stop offset="1" stop-color="#DA9B8C"/></linearGradient><linearGradient id="paint3_linear" x1="9.129" y1="18.097" x2="9.129" y2="11.349" gradientUnits="userSpaceOnUse"><stop stop-color="#AC6C58"/><stop offset="1" stop-color="#DA9B8C"/></linearGradient><linearGradient id="paint4_linear" x1="25.636" y1="25.475" x2="25.636" y2="17.065" gradientUnits="userSpaceOnUse"><stop stop-color="#D4DBDB"/><stop offset="1" stop-color="#F3F3F3"/></linearGradient></defs></svg>