<svg width="31" height="29" fill="none" xmlns="http://www.w3.org/2000/svg"><path d="M3.918 22.992a2.975 2.975 0 100-5.95 2.975 2.975 0 000 5.95z" fill="url(#paint0_linear)"/><path d="M20.336 10.662a6.223 6.223 0 010-8.79 6.222 6.222 0 018.79 0 6.222 6.222 0 010 8.79 6.222 6.222 0 01-8.79 0zM26.498 4.5a2.503 2.503 0 00-3.535 0 2.503 2.503 0 000 3.536c.975.975 2.56.975 3.535 0a2.503 2.503 0 000-3.536z" fill="url(#paint1_linear)"/><path d="M12.496 7.875c-2.658 2.658-5.424 4.355-8.01 4.56.451 2.505 1.998 6.425 4.825 9.252 2.826 2.827 6.747 4.374 9.252 4.825.205-2.586 1.902-5.353 4.56-8.01A7.514 7.514 0 1012.496 7.875z" fill="url(#paint2_linear)"/><path d="M7.997 23c-3.146-3.146-4.843-7.48-5.34-10.235a1.858 1.858 0 013.657-.66c.433 2.404 1.934 5.892 4.31 8.268 2.377 2.377 5.865 3.878 8.268 4.311a1.858 1.858 0 11-.659 3.657c-2.755-.497-7.09-2.194-10.236-5.34z" fill="url(#paint3_linear)"/><path d="M11.842 19.743c-.51.51-.456 1.354.117 1.793 2.227 1.705 4.95 2.79 6.933 3.148l.046.01c.237-.726.577-1.461 1.008-2.199a4.308 4.308 0 00-.63-.163c-1.637-.296-4.007-1.24-5.91-2.698a1.191 1.191 0 00-1.564.109z" fill="#EFC534"/><path d="M12.071 12.76c-.28.28-.79.225-1.138-.123-.349-.349-.404-.859-.124-1.139s.79-.224 1.138.124c.349.349.405.859.124 1.139zm7.424 7.428c.28-.28.224-.79-.124-1.138-.349-.349-.858-.404-1.138-.124-.28.28-.225.79.123 1.138.349.349.858.404 1.139.124z" fill="#EAADCD"/><path d="M13.774 13.73a1.77 1.77 0 100-3.54 1.77 1.77 0 000 3.54z" fill="#fff"/><path d="M14.28 13.52a1.055 1.055 0 100-2.109 1.055 1.055 0 000 2.11z" fill="#3B3B44"/><path d="M19.037 18.994a1.77 1.77 0 100-3.54 1.77 1.77 0 000 3.54z" fill="#fff"/><path d="M19.848 18.73a1.055 1.055 0 10-.611-2.018 1.055 1.055 0 00.611 2.019zm-3.835-2.629c.405-.405.483-.984.174-1.293-.31-.31-.889-.232-1.294.173-.404.405-.482.984-.173 1.293.31.31.888.232 1.293-.173z" fill="#3B3B44"/><path d="M15.401 8.527a.598.598 0 01-.25-1.141c.183-.083.37-.16.56-.225a.598.598 0 01.393 1.13 5.154 5.154 0 00-.454.181.596.596 0 01-.249.055zm5.696.502a.595.595 0 01-.34-.107 5.151 5.151 0 00-2.509-.9.598.598 0 01.1-1.19 6.343 6.343 0 013.09 1.108.598.598 0 01-.341 1.089z" fill="#FFFDE3"/><defs><linearGradient id="paint0_linear" x1="6.715" y1="20.017" x2="-.574" y2="20.017" gradientUnits="userSpaceOnUse"><stop stop-color="#AC6C58"/><stop offset="1" stop-color="#DA9B8C"/></linearGradient><linearGradient id="paint1_linear" x1="24.731" y1="12.54" x2="24.731" y2="-2.068" gradientUnits="userSpaceOnUse"><stop stop-color="#AC6C58"/><stop offset="1" stop-color="#DA9B8C"/></linearGradient><linearGradient id="paint2_linear" x1="14.904" y1="25.375" x2="14.904" y2=".84" gradientUnits="userSpaceOnUse"><stop stop-color="#F4D952"/><stop offset="1" stop-color="#F9EDAF"/></linearGradient><linearGradient id="paint3_linear" x1="11.524" y1="26.983" x2="11.524" y2="4.048" gradientUnits="userSpaceOnUse"><stop stop-color="#74D2E8"/><stop offset="1" stop-color="#BAEAF5"/></linearGradient></defs></svg>