<svg width="31" height="30" fill="none" xmlns="http://www.w3.org/2000/svg"><path d="M21.133 30H9.026C4.114 30 .117 26.003.117 21.09V8.91C.117 3.996 4.114 0 9.027 0h12.106c4.913 0 8.91 3.997 8.91 8.91v12.18c0 4.912-3.997 8.909-8.91 8.909zM9.026 1.195c-4.253 0-7.714 3.46-7.714 7.714v12.182c0 4.253 3.46 7.714 7.714 7.714h12.107c4.254 0 7.714-3.46 7.714-7.714V8.909c0-4.253-3.46-7.714-7.714-7.714H9.026zm12.107 25.39H9.026a5.5 5.5 0 01-5.493-5.494V8.909a5.5 5.5 0 015.493-5.493h12.107a5.5 5.5 0 015.494 5.493v12.182a5.5 5.5 0 01-5.494 5.493zM9.026 4.61a4.303 4.303 0 00-4.298 4.298V21.09a4.303 4.303 0 004.298 4.298h12.107a4.303 4.303 0 004.298-4.298V8.909a4.303 4.303 0 00-4.298-4.298H9.026z" fill="#C63F00"/><path d="M15.08 22.724c-4.26 0-7.724-3.465-7.724-7.724 0-4.26 3.465-7.724 7.724-7.724 4.258 0 7.723 3.465 7.723 7.724s-3.464 7.724-7.723 7.724zm0-14.253A6.536 6.536 0 008.55 15c0 3.6 2.929 6.529 6.529 6.529s6.528-2.93 6.528-6.53-2.928-6.528-6.528-6.528zm0 10.921A4.397 4.397 0 0110.687 15a4.397 4.397 0 014.393-4.392A4.397 4.397 0 0119.472 15a4.397 4.397 0 01-4.392 4.392zm0-7.59A3.2 3.2 0 0011.883 15a3.2 3.2 0 003.197 3.197A3.2 3.2 0 0018.276 15a3.2 3.2 0 00-3.196-3.197z" fill="#C63F00"/><path d="M22.374 9.562a1.858 1.858 0 01-1.856-1.856c0-1.023.832-1.856 1.856-1.856 1.023 0 1.855.833 1.855 1.856a1.858 1.858 0 01-1.855 1.856zm0-2.517a.661.661 0 10.001 1.323.661.661 0 00-.001-1.323zm-8.25 21.281H8.506a.598.598 0 110-1.195h5.618a.598.598 0 110 1.195zm2.27 0h-.358a.598.598 0 110-1.195h.358a.598.598 0 010 1.195z" fill="#C63F00"/></svg>