<svg width="121" height="120" fill="none" xmlns="http://www.w3.org/2000/svg"><g clip-path="url(#clip0)"><path d="M94.051 116.379H11.185c-5.932 0-10.742-4.703-10.742-10.504V62.208c0-5.801 4.81-10.504 10.742-10.504H94.05c5.933 0 10.742 4.703 10.742 10.504v43.667c0 5.801-4.81 10.504-10.742 10.504z" fill="url(#paint0_linear)"/><path d="M116.306 48.809L57.71 106.11c-4.195 4.102-10.996 4.102-15.19 0L10.944 75.233a10.34 10.34 0 010-14.855L69.54 3.077c4.195-4.103 10.996-4.103 15.191 0l31.575 30.877a10.342 10.342 0 010 14.855z" fill="url(#paint1_linear)"/><path d="M94.051 43.59H72.543l-10.879 2.997-10.478-2.997h-12.02c-2.292 0-4.15 1.816-4.15 4.057 0 2.24 1.858 4.057 4.15 4.057h54.886c5.248 0 9.614 3.682 10.552 8.547l6.484-6.34c-3.126-6.112-9.586-10.321-17.037-10.321z" fill="#E05D6F"/><path d="M99.338 17.36L25.552 89.518l-10.665-10.43L88.674 6.932l10.664 10.429z" fill="url(#paint2_linear)"/><path d="M64.218 51.704l8.298-8.114H51.187l-8.297 8.114h21.328z" fill="#424E5E"/><path d="M73.467 98.276h31.326V62.208c0-5.801-4.81-10.504-10.742-10.504H11.185C5.253 51.704.443 56.407.443 62.208v43.667c0 5.801 4.81 10.504 10.742 10.504h49.134l3.589-11.23c1.307-4.089 5.179-6.873 9.559-6.873z" fill="url(#paint3_linear)"/><path d="M34.208 87.318H16.855c-3.335 0-6.038-2.644-6.038-5.905V79.47c0-3.261 2.703-5.905 6.038-5.905h17.353c3.334 0 6.037 2.644 6.037 5.905v1.943c0 3.261-2.703 5.905-6.037 5.905z" fill="url(#paint4_linear)"/><path d="M65.2 89.305h-9.805c-1.506 0-2.726-1.193-2.726-2.666 0-1.472 1.22-2.666 2.726-2.666H65.2c1.505 0 2.726 1.194 2.726 2.666 0 1.473-1.22 2.666-2.726 2.666zm23.662 0h-9.805c-1.506 0-2.727-1.193-2.727-2.666 0-1.472 1.221-2.666 2.727-2.666h9.805c1.505 0 2.726 1.194 2.726 2.666 0 1.473-1.22 2.666-2.726 2.666z" fill="#A86455"/><path d="M51.31 80.087c1.954 0 3.538-1.245 3.538-2.781s-1.584-2.78-3.538-2.78c-1.954 0-3.538 1.244-3.538 2.78 0 1.536 1.584 2.78 3.538 2.78zm41.636 0c1.954 0 3.538-1.245 3.538-2.781s-1.584-2.78-3.538-2.78c-1.954 0-3.538 1.244-3.538 2.78 0 1.536 1.584 2.78 3.538 2.78z" fill="#EFC5DB"/><path d="M93.795 71.38c.55-3.746-2.11-7.219-5.942-7.756-3.831-.538-7.382 2.064-7.932 5.81-.55 3.747 2.11 7.22 5.942 7.757 3.831.538 7.382-2.064 7.932-5.81z" fill="#fff"/><path d="M82.715 70.79c.179 2.096 1.975 3.744 4.166 3.744 2.19 0 3.986-1.648 4.165-3.745h-8.331z" fill="#3B3B44"/><path d="M86.88 63.602c-3.87 0-7.007 3.068-7.007 6.853 0 .112.004.224.01.335h13.996c.005-.111.008-.223.008-.335 0-3.785-3.137-6.852-7.007-6.852z" fill="#17C5D9"/><path d="M64.321 71.58c.627-3.735-1.961-7.26-5.78-7.873-3.82-.613-7.425 1.918-8.052 5.653-.627 3.735 1.961 7.26 5.78 7.873 3.82.613 7.425-1.918 8.052-5.653z" fill="#fff"/><path d="M53.21 70.79c.179 2.096 1.975 3.744 4.166 3.744 2.19 0 3.986-1.648 4.165-3.745H53.21z" fill="#3B3B44"/><path d="M57.376 63.602c-3.87 0-7.007 3.068-7.007 6.853 0 .112.003.224.008.335h13.997a6.79 6.79 0 00.009-.335c0-3.785-3.137-6.852-7.007-6.852z" fill="#17C5D9"/><path d="M74.823 78.107c-.433 0-.867-.153-1.209-.464-.888-.805-2.083-.806-2.972 0a1.807 1.807 0 01-2.513-.093 1.712 1.712 0 01.096-2.457c2.261-2.05 5.545-2.05 7.807 0 .72.653.763 1.753.095 2.457a1.79 1.79 0 01-1.304.557z" fill="#3B3B44"/></g><defs><linearGradient id="paint0_linear" x1=".443" y1="84.041" x2="104.793" y2="84.041" gradientUnits="userSpaceOnUse"><stop stop-color="#F4D952"/><stop offset="1" stop-color="#F9EDAF"/></linearGradient><linearGradient id="paint1_linear" x1="26.727" y1="90.667" x2="98.855" y2="16.909" gradientUnits="userSpaceOnUse"><stop stop-color="#EC6F80"/><stop offset="1" stop-color="#ECA0AA"/></linearGradient><linearGradient id="paint2_linear" x1="20.215" y1="84.299" x2="92.344" y2="10.541" gradientUnits="userSpaceOnUse"><stop stop-color="#4E5660"/><stop offset="1" stop-color="#64768D"/></linearGradient><linearGradient id="paint3_linear" x1=".443" y1="84.041" x2="104.793" y2="84.041" gradientUnits="userSpaceOnUse"><stop stop-color="#EC6F80"/><stop offset="1" stop-color="#ECA0AA"/></linearGradient><linearGradient id="paint4_linear" x1="25.531" y1="103.624" x2="25.531" y2="61.846" gradientUnits="userSpaceOnUse"><stop stop-color="#F4D952"/><stop offset="1" stop-color="#F9EDAF"/></linearGradient><clipPath id="clip0"><path fill="#fff" transform="translate(.224)" d="M0 0h120v120H0z"/></clipPath></defs></svg>