<svg width="31" height="27" fill="none" xmlns="http://www.w3.org/2000/svg"><path d="M28.65.65L1.41 11.16c-.672.259-.666 1.21.008 1.463L8.055 15.1l2.57 8.262a.781.781 0 001.24.373l3.7-3.016c.388-.316.94-.332 1.346-.037l6.673 4.845a.782.782 0 001.225-.474L29.698 1.54A.783.783 0 0028.65.65zm-5.191 5.48l-10.182 9.465a2.11 2.11 0 00-.655 1.263l-.347 2.57c-.045.343-.528.377-.622.045l-1.334-4.687a1.242 1.242 0 01.543-1.397l12.337-7.6c.222-.135.45.165.26.341z" fill="#E1E1E3"/><path d="M24.042 26.274c-.287 0-.57-.09-.81-.264l-6.673-4.845a.506.506 0 00-.617.017l-3.7 3.016a1.377 1.377 0 01-2.189-.66l-2.481-7.981-6.363-2.375a1.372 1.372 0 01-.898-1.287 1.37 1.37 0 01.884-1.294L28.435.093a1.378 1.378 0 011.848 1.568l-4.889 23.514a1.374 1.374 0 01-1.352 1.099zm-7.78-6.4a1.7 1.7 0 011 .324l6.672 4.845a.18.18 0 00.176.023.179.179 0 00.114-.134l4.888-23.514a.179.179 0 00-.061-.179.177.177 0 00-.186-.031L1.625 11.716a.173.173 0 00-.118.173c0 .059.021.136.12.174l6.637 2.477a.598.598 0 01.362.382l2.569 8.262a.18.18 0 00.123.122.18.18 0 00.169-.033l3.7-3.017a1.7 1.7 0 011.075-.382zm-4.305.428a.908.908 0 01-.879-.665l-1.334-4.688a1.846 1.846 0 01.804-2.07l12.338-7.598a.81.81 0 011.074.2.81.81 0 01-.095 1.087l-10.182 9.464c-.255.238-.422.56-.469.906l-.347 2.57a.909.909 0 01-.91.794zM20.213 8.33l-9.038 5.567a.646.646 0 00-.282.725l.969 3.402.168-1.246a2.71 2.71 0 01.84-1.62l7.343-6.828z" fill="#A0A0A1"/><path d="M25.142 14.51a.598.598 0 01-.585-.725l.091-.417a.598.598 0 111.168.253l-.09.419a.598.598 0 01-.584.47zm-1.882 8.667a.599.599 0 01-.584-.725l1.375-6.331a.598.598 0 111.168.253l-1.375 6.332a.598.598 0 01-.583.47z" fill="#A0A0A1"/></svg>