<svg width="31" height="25" fill="none" xmlns="http://www.w3.org/2000/svg"><path d="M29.55 3.32c-.453.2-.918.37-1.393.507a6.158 6.158 0 001.254-2.205.464.464 0 00-.68-.541 10.964 10.964 0 01-3.24 1.28A6.214 6.214 0 0021.16.599a6.19 6.19 0 00-6.13 6.981A15.831 15.831 0 014.163 1.815a.464.464 0 00-.762.06 6.18 6.18 0 00-.837 3.11c0 1.49.532 2.903 1.472 4.008a5.234 5.234 0 01-.828-.37.464.464 0 00-.69.396V9.1a6.206 6.206 0 003.026 5.318 5.34 5.34 0 01-.47-.068.464.464 0 00-.53.598 6.181 6.181 0 004.53 4.144 10.94 10.94 0 01-5.847 1.67c-.438 0-.879-.027-1.31-.078a.465.465 0 00-.305.853 16.676 16.676 0 009.017 2.643c6.296 0 10.234-2.969 12.43-5.46 2.737-3.105 4.307-7.215 4.307-11.277 0-.17-.003-.34-.008-.511a12.023 12.023 0 002.767-2.93.465.465 0 00-.575-.684z" fill="#5DC4FB"/><path d="M10.63 24.78c-3.318 0-6.548-.948-9.341-2.739a1.057 1.057 0 01-.427-1.252 1.058 1.058 0 011.125-.697c.407.049.824.073 1.24.073 1.52 0 3.007-.325 4.364-.948a6.809 6.809 0 01-3.616-4.086 1.07 1.07 0 01.188-.995 6.823 6.823 0 01-2.242-5.132 1.068 1.068 0 01.757-.992 6.798 6.798 0 01.207-6.438 1.063 1.063 0 011.741-.136 15.305 15.305 0 009.756 5.469l-.001-.126A6.789 6.789 0 0121.162 0c1.647 0 3.269.618 4.501 1.707.97-.245 1.899-.627 2.764-1.14.377-.224.86-.19 1.203.083.343.272.483.736.35 1.154a6.76 6.76 0 01-.352.884c.343-.035.694.1.924.373.302.359.33.883.07 1.274-.736 1.1-1.63 2.07-2.66 2.886l.001.223c0 4.205-1.624 8.46-4.456 11.673-2.277 2.583-6.359 5.662-12.878 5.662zm-8.214-3.448a16.076 16.076 0 008.213 2.252c6.073 0 9.867-2.859 11.981-5.257 2.643-2.998 4.158-6.964 4.158-10.882 0-.164-.002-.33-.007-.494a.598.598 0 01.237-.495c.906-.682 1.7-1.492 2.37-2.412-.343.136-.692.255-1.045.357a.598.598 0 01-.614-.97 5.528 5.528 0 001.014-1.657 11.55 11.55 0 01-3.104 1.171.597.597 0 01-.546-.156 5.641 5.641 0 00-3.91-1.594 5.592 5.592 0 00-5.541 6.31.598.598 0 01-.645.67A16.497 16.497 0 013.824 2.344a5.593 5.593 0 00.667 6.262.598.598 0 01-.65.951 5.872 5.872 0 01-.724-.306 5.626 5.626 0 002.734 4.655.598.598 0 01-.366 1.108c-.1-.01-.2-.023-.3-.038a5.607 5.607 0 004.02 3.535.598.598 0 01.187 1.09 11.595 11.595 0 01-6.976 1.731z" fill="#3B87E3"/><path d="M5.712 7.011a.595.595 0 01-.357-.118 16.641 16.641 0 01-.403-.31.598.598 0 01.744-.936c.122.097.247.194.374.288a.598.598 0 01-.358 1.076zm8.062 3.079a16.492 16.492 0 01-6.712-2.082.598.598 0 11.592-1.039 15.29 15.29 0 006.172 1.928.598.598 0 01-.052 1.193z" fill="#3B87E3"/></svg>