<svg width="31" height="18" fill="none" xmlns="http://www.w3.org/2000/svg"><path d="M25.955 10.962c.956.933 1.964 1.81 2.82 2.838.38.456.738.927 1.012 1.456.388.753.037 1.582-.639 1.627l-4.196-.002c-1.082.09-1.945-.346-2.671-1.086-.581-.592-1.12-1.222-1.678-1.834a3.974 3.974 0 00-.755-.67c-.573-.373-1.07-.259-1.397.339-.334.607-.41 1.28-.442 1.957-.045.989-.344 1.248-1.336 1.294-2.121.1-4.134-.221-6.005-1.291-1.648-.944-2.927-2.275-4.04-3.783C4.461 8.87 2.802 5.645 1.311 2.329c-.336-.747-.09-1.148.734-1.162 1.37-.027 2.738-.025 4.108-.002.557.008.925.327 1.14.853.74 1.82 1.647 3.553 2.784 5.16.303.427.612.854 1.052 1.155.487.334.857.223 1.086-.319.145-.344.209-.714.242-1.082.108-1.267.122-2.53-.068-3.793-.117-.788-.56-1.297-1.346-1.447-.401-.076-.342-.225-.147-.454.337-.395.654-.64 1.286-.64h4.743c.746.147.912.482 1.014 1.234l.004 5.267c-.008.291.145 1.154.67 1.347.419.137.695-.199.947-.464 1.135-1.206 1.945-2.63 2.67-4.105.32-.648.597-1.321.864-1.994.199-.5.51-.745 1.073-.734l4.564.004c.135 0 .272.002.403.024.77.131.98.462.742 1.213-.374 1.178-1.102 2.16-1.814 3.147-.761 1.053-1.575 2.07-2.33 3.13-.694.967-.639 1.455.223 2.295z" fill="#62A2FB"/><path d="M15.962 17.495c-2.129 0-3.964-.456-5.59-1.387-1.549-.886-2.891-2.14-4.225-3.946C4.254 9.596 2.594 6.639.766 2.574.51 2.004.5 1.526.74 1.15.978.775 1.414.58 2.035.57 3.352.543 4.703.543 6.163.567c.767.011 1.365.446 1.683 1.224.772 1.9 1.662 3.548 2.719 5.04.264.374.538.76.901 1.009l.002.001a.13.13 0 00.195-.057l.002-.003c.1-.238.163-.525.196-.902.12-1.405.1-2.566-.063-3.651-.083-.559-.35-.85-.867-.949-.146-.027-.593-.112-.743-.536-.149-.42.142-.762.252-.891.378-.443.85-.852 1.742-.852h4.743c.036 0 .074.003.11.01 1.194.234 1.394.988 1.497 1.741a.613.613 0 01.005.08L18.54 7.1v.017c-.003.11.026.265.071.408a.273.273 0 00.46.104l.002-.003.051-.054c1.15-1.22 1.944-2.685 2.568-3.957.326-.659.608-1.353.846-1.952.298-.75.845-1.124 1.633-1.11l4.56.003c.157 0 .325.003.503.033.364.062.88.198 1.16.654.278.457.163.977.051 1.328-.389 1.226-1.116 2.232-1.819 3.205l-.08.112c-.36.498-.736.994-1.1 1.473-.409.54-.832 1.097-1.228 1.653-.266.37-.38.62-.364.79.017.171.181.404.517.731.25.244.51.49.76.727.713.675 1.45 1.373 2.103 2.155.36.434.768.957 1.083 1.566.301.585.306 1.245.012 1.765a1.404 1.404 0 01-1.182.733l-4.172-.002c-1.161.09-2.211-.337-3.122-1.265-.402-.41-.787-.84-1.159-1.256a91.878 91.878 0 00-.533-.593 3.45 3.45 0 00-.64-.573c-.136-.088-.258-.13-.327-.113-.065.016-.147.105-.22.239-.261.475-.337 1.023-.37 1.699-.058 1.279-.592 1.801-1.905 1.861-.25.012-.496.018-.738.018zM1.765 1.801c.006.049.026.139.091.283 1.792 3.984 3.412 6.873 5.253 9.368 1.231 1.668 2.457 2.818 3.856 3.619 1.609.92 3.466 1.316 5.68 1.212.46-.02.598-.09.64-.129.031-.03.107-.148.127-.594.035-.73.122-1.502.515-2.218.303-.553.698-.753.976-.823.28-.071.73-.082 1.27.27.362.234.643.52.87.769.184.2.367.405.544.603.362.405.737.824 1.12 1.215.676.688 1.374.977 2.196.909a.625.625 0 01.05-.002l4.17.002c.038-.005.108-.023.166-.125.07-.125.104-.365-.033-.63-.262-.507-.622-.966-.94-1.35-.607-.726-1.287-1.37-2.006-2.052-.254-.24-.516-.489-.772-.739-1.084-1.056-1.16-1.86-.292-3.07.406-.57.834-1.135 1.249-1.682.36-.473.73-.964 1.083-1.45l.08-.113c.678-.937 1.318-1.823 1.649-2.865.066-.208.067-.308.063-.342-.03-.019-.119-.064-.336-.101a1.945 1.945 0 00-.303-.016l-4.565-.004h-.011c-.269-.006-.381.045-.505.357-.247.622-.54 1.342-.885 2.04-.663 1.35-1.511 2.911-2.77 4.248l-.048.05c-.268.287-.767.819-1.52.572a.739.739 0 01-.02-.007c-.829-.304-1.072-1.414-1.061-1.914l-.004-5.22c-.027-.186-.07-.424-.146-.525-.018-.024-.07-.093-.333-.152h-4.68a.934.934 0 00-.45.09c.686.311 1.122.921 1.247 1.766.178 1.179.2 2.428.072 3.932-.045.506-.136.907-.287 1.263-.233.553-.58.756-.829.83-.25.072-.65.088-1.145-.25-.54-.37-.906-.887-1.201-1.304-1.111-1.568-2.044-3.295-2.85-5.28-.172-.418-.397-.477-.595-.48a112.403 112.403 0 00-4.088.002 1.024 1.024 0 00-.292.037z" fill="#3765A3"/><path d="M4.393 4.554a.598.598 0 01-.534-.328c-.09-.177-.178-.354-.266-.532a.598.598 0 111.072-.53l.26.523a.598.598 0 01-.532.867zm3.801 6.286a.597.597 0 01-.481-.244 40.844 40.844 0 01-2.887-4.54.598.598 0 011.046-.578 39.646 39.646 0 002.802 4.409.598.598 0 01-.48.952z" fill="#3765A3"/></svg>