<svg width="31" height="22" fill="none" xmlns="http://www.w3.org/2000/svg"><path d="M29.103 2.338c-1.04-1.236-2.96-1.74-6.625-1.74H9.169c-3.75 0-5.702.536-6.738 1.852-1.01 1.283-1.01 3.174-1.01 5.79v4.987c0 5.069 1.198 7.642 7.748 7.642h13.309c3.179 0 4.94-.445 6.08-1.535 1.17-1.119 1.668-2.945 1.668-6.107V8.24c0-2.76-.078-4.66-1.123-5.902zm-9.19 9.084l-6.042 3.159a.929.929 0 01-1.36-.824V7.46a.93.93 0 011.358-.824l6.043 3.138a.93.93 0 01.002 1.648z" fill="#EA163F"/><path d="M22.478 21.467H9.169c-3.356 0-5.51-.675-6.78-2.124C1.013 17.77.823 15.475.823 13.227V8.24c0-2.737 0-4.714 1.138-6.16C3.125.604 5.213 0 9.17 0h13.308c3.864 0 5.916.566 7.083 1.953 1.176 1.397 1.264 3.396 1.264 6.287v4.987c0 3.34-.554 5.296-1.852 6.538-1.263 1.209-3.145 1.702-6.494 1.702zM9.169 1.195c-3.544 0-5.36.47-6.268 1.625-.882 1.12-.882 2.924-.882 5.42v4.987c0 4.871 1.032 7.045 7.15 7.045h13.309c3.008 0 4.65-.397 5.667-1.37 1.04-.995 1.483-2.692 1.483-5.675V8.24c0-2.628-.068-4.431-.982-5.517-.913-1.085-2.7-1.528-6.169-1.528H9.17zm4.271 14.089a1.526 1.526 0 01-1.526-1.527V7.46c0-.53.28-1.03.734-1.305a1.536 1.536 0 011.496-.05l6.043 3.138c.507.264.823.782.823 1.353a1.522 1.522 0 01-.82 1.356l-6.043 3.158a1.533 1.533 0 01-.707.174zm0-8.155a.332.332 0 00-.331.331v6.297c0 .115.06.224.16.284a.337.337 0 00.325.01l6.043-3.159a.33.33 0 000-.588l-6.044-3.138a.33.33 0 00-.153-.037z" fill="#9C0E2B"/><path d="M20.843 19.638h-.537a.598.598 0 110-1.195h.537a.598.598 0 110 1.195zm-2.868 0H8.533a.598.598 0 010-1.195h9.442a.598.598 0 110 1.195z" fill="#9C0E2B"/></svg>